{"scenes":[{"nodes":[0]}],"nodes":[{"name":"AnSceneNodeScene%201","children":[1,26]},{"name":"AnMovieClipbeegif","children":[2,3,4,5,6,7,8,9,10,11,12,13,14,15,16,17,18,19,20,21,22,23,24,25],"translation":[-341.149994,379.75,0],"scale":[0.144516,0.144257,1]},{"name":"AnNode2","mesh":0,"scale":[40,40,1]},{"name":"AnNode3","mesh":1,"scale":[0,0,0]},{"name":"AnNode4","mesh":2,"scale":[0,0,0]},{"name":"AnNode5","mesh":3,"scale":[0,0,0]},{"name":"AnNode6","mesh":4,"scale":[0,0,0]},{"name":"AnNode7","mesh":5,"scale":[0,0,0]},{"name":"AnNode8","mesh":6,"scale":[0,0,0]},{"name":"AnNode9","mesh":7,"scale":[0,0,0]},{"name":"AnNode10","mesh":8,"scale":[0,0,0]},{"name":"AnNode11","mesh":9,"scale":[0,0,0]},{"name":"AnNode12","mesh":10,"scale":[0,0,0]},{"name":"AnNode13","mesh":11,"scale":[0,0,0]},{"name":"AnNode14","mesh":12,"scale":[0,0,0]},{"name":"AnNode15","mesh":13,"scale":[0,0,0]},{"name":"AnNode16","mesh":14,"scale":[0,0,0]},{"name":"AnNode17","mesh":15,"scale":[0,0,0]},{"name":"AnNode18","mesh":16,"scale":[0,0,0]},{"name":"AnNode19","mesh":17,"scale":[0,0,0]},{"name":"AnNode20","mesh":18,"scale":[0,0,0]},{"name":"AnNode21","mesh":19,"scale":[0,0,0]},{"name":"AnNode22","mesh":20,"scale":[0,0,0]},{"name":"AnNode23","mesh":21,"scale":[0,0,0]},{"name":"AnNode24","mesh":22,"scale":[0,0,0]},{"name":"AnNode25","mesh":23,"scale":[0,0,0]},{"name":"AnDummyNode","mesh":24,"scale":[0,0,0]}],"meshes":[{"primitives":[{"attributes":{"POSITION":1,"TEXCOORD_0":13},"indices":0,"material":0}]},{"primitives":[{"attributes":{"POSITION":1,"TEXCOORD_0":14},"indices":0,"material":1}]},{"primitives":[{"attributes":{"POSITION":1,"TEXCOORD_0":15},"indices":0,"material":2}]},{"primitives":[{"attributes":{"POSITION":1,"TEXCOORD_0":16},"indices":0,"material":2}]},{"primitives":[{"attributes":{"POSITION":1,"TEXCOORD_0":17},"indices":0,"material":1}]},{"primitives":[{"attributes":{"POSITION":1,"TEXCOORD_0":18},"indices":0,"material":0}]},{"primitives":[{"attributes":{"POSITION":1,"TEXCOORD_0":19},"indices":0,"material":0}]},{"primitives":[{"attributes":{"POSITION":1,"TEXCOORD_0":20},"indices":0,"material":2}]},{"primitives":[{"attributes":{"POSITION":1,"TEXCOORD_0":21},"indices":0,"material":1}]},{"primitives":[{"attributes":{"POSITION":1,"TEXCOORD_0":22},"indices":0,"material":2}]},{"primitives":[{"attributes":{"POSITION":1,"TEXCOORD_0":23},"indices":0,"material":1}]},{"primitives":[{"attributes":{"POSITION":1,"TEXCOORD_0":24},"indices":0,"material":0}]},{"primitives":[{"attributes":{"POSITION":1,"TEXCOORD_0":25},"indices":0,"material":1}]},{"primitives":[{"attributes":{"POSITION":1,"TEXCOORD_0":26},"indices":0,"material":2}]},{"primitives":[{"attributes":{"POSITION":1,"TEXCOORD_0":27},"indices":0,"material":1}]},{"primitives":[{"attributes":{"POSITION":1,"TEXCOORD_0":28},"indices":0,"material":2}]},{"primitives":[{"attributes":{"POSITION":1,"TEXCOORD_0":29},"indices":0,"material":1}]},{"primitives":[{"attributes":{"POSITION":1,"TEXCOORD_0":30},"indices":0,"material":0}]},{"primitives":[{"attributes":{"POSITION":1,"TEXCOORD_0":31},"indices":0,"material":1}]},{"primitives":[{"attributes":{"POSITION":1,"TEXCOORD_0":32},"indices":0,"material":1}]},{"primitives":[{"attributes":{"POSITION":1,"TEXCOORD_0":33},"indices":0,"material":2}]},{"primitives":[{"attributes":{"POSITION":1,"TEXCOORD_0":34},"indices":0,"material":2}]},{"primitives":[{"attributes":{"POSITION":1,"TEXCOORD_0":35},"indices":0,"material":2}]},{"primitives":[{"attributes":{"POSITION":1,"TEXCOORD_0":36},"indices":0,"material":1}]},{"primitives":[{"attributes":{"POSITION":4},"indices":3,"material":3}]}],"animations":[{"name":"AnSceneNodeScene%201","samplers":[{"input":5,"interpolation":"STEP","output":6},{"input":7,"interpolation":"STEP","output":8},{"input":9,"interpolation":"STEP","output":10},{"input":11,"interpolation":"STEP","output":12}],"channels":[{"sampler":0,"target":{"node":2,"path":"scale"}},{"sampler":1,"target":{"node":3,"path":"scale"}},{"sampler":2,"target":{"node":4,"path":"scale"}},{"sampler":3,"target":{"node":1,"path":"scale"}}]}],"buffers":[{"uri":"data:application/octet-stream;base64,","byteLength":1968}],"bufferViews":[{"buffer":0,"byteOffset":0,"byteLength":24,"target":34963},{"buffer":0,"byteOffset":24,"byteLength":48,"target":34962},{"buffer":0,"byteOffset":72,"byteLength":32},{"buffer":0,"byteOffset":104,"byteLength":24,"target":34963},{"buffer":0,"byteOffset":128,"byteLength":48,"target":34962},{"buffer":0,"byteOffset":176,"byteLength":256},{"buffer":0,"byteOffset":432,"byteLength":256},{"buffer":0,"byteOffset":688,"byteLength":256},{"buffer":0,"byteOffset":944,"byteLength":256},{"buffer":0,"byteOffset":1200,"byteLength":32},{"buffer":0,"byteOffset":1232,"byteLength":32},{"buffer":0,"byteOffset":1264,"byteLength":32},{"buffer":0,"byteOffset":1296,"byteLength":32},{"buffer":0,"byteOffset":1328,"byteLength":32},{"buffer":0,"byteOffset":1360,"byteLength":32},{"buffer":0,"byteOffset":1392,"byteLength":32},{"buffer":0,"byteOffset":1424,"byteLength":32},{"buffer":0,"byteOffset":1456,"byteLength":32},{"buffer":0,"byteOffset":1488,"byteLength":32},{"buffer":0,"byteOffset":1520,"byteLength":32},{"buffer":0,"byteOffset":1552,"byteLength":32},{"buffer":0,"byteOffset":1584,"byteLength":32},{"buffer":0,"byteOffset":1616,"byteLength":32},{"buffer":0,"byteOffset":1648,"byteLength":32},{"buffer":0,"byteOffset":1680,"byteLength":32},{"buffer":0,"byteOffset":1712,"byteLength":32},{"buffer":0,"byteOffset":1744,"byteLength":32},{"buffer":0,"byteOffset":1776,"byteLength":32},{"buffer":0,"byteOffset":1808,"byteLength":32},{"buffer":0,"byteOffset":1840,"byteLength":32},{"buffer":0,"byteOffset":1872,"byteLength":32},{"buffer":0,"byteOffset":1904,"byteLength":32},{"buffer":0,"byteOffset":1936,"byteLength":32}],"accessors":[{"name":"accessor_0","bufferView":0,"byteOffset":0,"componentType":5125,"count":6,"type":"SCALAR","max":[3],"min":[0]},{"name":"accessor_1","bufferView":1,"byteOffset":0,"componentType":5126,"count":4,"type":"VEC3","max":[100,0,0],"min":[0,-100,0]},{"name":"accessor_2","bufferView":2,"byteOffset":0,"componentType":5126,"count":4,"type":"VEC2","max":[1,1],"min":[0,0]},{"name":"accessor_3","bufferView":3,"byteOffset":0,"componentType":5125,"count":6,"type":"SCALAR","max":[3],"min":[0]},{"name":"accessor_4","bufferView":4,"byteOffset":0,"componentType":5126,"count":4,"type":"VEC3","max":[100,0,0],"min":[0,-100,0]},{"name":"accessor_5","bufferView":5,"byteOffset":0,"componentType":5126,"count":16,"type":"SCALAR","max":[3],"min":[0]},{"name":"accessor_6","bufferView":5,"byteOffset":64,"componentType":5126,"count":16,"type":"VEC3"},{"name":"accessor_7","bufferView":6,"byteOffset":0,"componentType":5126,"count":16,"type":"SCALAR","max":[3],"min":[0]},{"name":"accessor_8","bufferView":6,"byteOffset":64,"componentType":5126,"count":16,"type":"VEC3"},{"name":"accessor_9","bufferView":7,"byteOffset":0,"componentType":5126,"count":16,"type":"SCALAR","max":[3],"min":[0]},{"name":"accessor_10","bufferView":7,"byteOffset":64,"componentType":5126,"count":16,"type":"VEC3"},{"name":"accessor_11","bufferView":8,"byteOffset":0,"componentType":5126,"count":16,"type":"SCALAR","max":[3],"min":[0]},{"name":"accessor_12","bufferView":8,"byteOffset":64,"componentType":5126,"count":16,"type":"VEC3"},{"name":"accessor_13","bufferView":9,"byteOffset":0,"componentType":5126,"count":4,"type":"VEC2","max":[0.441,0.601],"min":[0,0.309]},{"name":"accessor_14","bufferView":10,"byteOffset":0,"componentType":5126,"count":4,"type":"VEC2","max":[0.261,0.669],"min":[0,0.413]},{"name":"accessor_15","bufferView":11,"byteOffset":0,"componentType":5126,"count":4,"type":"VEC2","max":[0.644,0.994],"min":[0.312,0.779]},{"name":"accessor_16","bufferView":12,"byteOffset":0,"componentType":5126,"count":4,"type":"VEC2","max":[0.708,0.242],"min":[0.35,0]},{"name":"accessor_17","bufferView":13,"byteOffset":0,"componentType":5126,"count":4,"type":"VEC2","max":[0.327,0.875],"min":[0,0.671]},{"name":"accessor_18","bufferView":14,"byteOffset":0,"componentType":5126,"count":4,"type":"VEC2","max":[0.778,0.915],"min":[0.396,0.603]},{"name":"accessor_19","bufferView":15,"byteOffset":0,"componentType":5126,"count":4,"type":"VEC2","max":[0.422,0.307],"min":[0,0]},{"name":"accessor_20","bufferView":16,"byteOffset":0,"componentType":5126,"count":4,"type":"VEC2","max":[0.962,0.777],"min":[0.674,0.503]},{"name":"accessor_21","bufferView":17,"byteOffset":0,"componentType":5126,"count":4,"type":"VEC2","max":[0.674,0.226],"min":[0.364,0]},{"name":"accessor_22","bufferView":18,"byteOffset":0,"componentType":5126,"count":4,"type":"VEC2","max":[0.672,0.513],"min":[0.35,0.244]},{"name":"accessor_23","bufferView":19,"byteOffset":0,"componentType":5126,"count":4,"type":"VEC2","max":[0.807,0.508],"min":[0.523,0.274]},{"name":"accessor_24","bufferView":20,"byteOffset":0,"componentType":5126,"count":4,"type":"VEC2","max":[0.817,0.3],"min":[0.426,0]},{"name":"accessor_25","bufferView":21,"byteOffset":0,"componentType":5126,"count":4,"type":"VEC2","max":[0.814,0.778],"min":[0.569,0.51]},{"name":"accessor_26","bufferView":22,"byteOffset":0,"componentType":5126,"count":4,"type":"VEC2","max":[0.313,0.757],"min":[0,0.515]},{"name":"accessor_27","bufferView":23,"byteOffset":0,"componentType":5126,"count":4,"type":"VEC2","max":[0.318,0.411],"min":[0,0.197]},{"name":"accessor_28","bufferView":24,"byteOffset":0,"componentType":5126,"count":4,"type":"VEC2","max":[0.348,0.254],"min":[0,0]},{"name":"accessor_29","bufferView":25,"byteOffset":0,"componentType":5126,"count":4,"type":"VEC2","max":[0.362,0.195],"min":[0,0]},{"name":"accessor_30","bufferView":26,"byteOffset":0,"componentType":5126,"count":4,"type":"VEC2","max":[0.393,0.919],"min":[0,0.603]},{"name":"accessor_31","bufferView":27,"byteOffset":0,"componentType":5126,"count":4,"type":"VEC2","max":[0.567,0.844],"min":[0.329,0.564]},{"name":"accessor_32","bufferView":28,"byteOffset":0,"componentType":5126,"count":4,"type":"VEC2","max":[0.933,0.272],"min":[0.676,0]},{"name":"accessor_33","bufferView":29,"byteOffset":0,"componentType":5126,"count":4,"type":"VEC2","max":[0.31,0.997],"min":[0,0.759]},{"name":"accessor_34","bufferView":30,"byteOffset":0,"componentType":5126,"count":4,"type":"VEC2","max":[0.987,0.501],"min":[0.674,0.244]},{"name":"accessor_35","bufferView":31,"byteOffset":0,"componentType":5126,"count":4,"type":"VEC2","max":[0.305,0.513],"min":[0,0.256]},{"name":"accessor_36","bufferView":32,"byteOffset":0,"componentType":5126,"count":4,"type":"VEC2","max":[0.521,0.562],"min":[0.32,0.228]}],"materials":[{"pbrMetallicRoughness":{"baseColorTexture":{"index":0}},"alphaMode":"MASK","alphaCutoff":0.76,"doubleSided":true},{"pbrMetallicRoughness":{"baseColorTexture":{"index":1}},"alphaMode":"MASK","alphaCutoff":0.76,"doubleSided":true},{"pbrMetallicRoughness":{"baseColorTexture":{"index":2}},"alphaMode":"MASK","alphaCutoff":0.76,"doubleSided":true},{"pbrMetallicRoughness":{"baseColorFactor":[1,1,1,0.9]},"alphaMode":"MASK","alphaCutoff":1,"doubleSided":false}],"samplers":[{"magFilter":9729,"minFilter":9729,"wrapS":33071,"wrapT":33071}],"textures":[{"sampler":0,"source":0},{"sampler":0,"source":1},{"sampler":0,"source":2}],"images":[{"uri":"data:application/octet-stream;base64,"},{"uri":"data:application/octet-stream;base64,"},{"uri":"data:application/octet-stream;base64,"}],"asset":{"version":"2.0","generator":"AdobeAnimateCC2019"}}